<?xml version="1.0" encoding="UTF-8" standalone="no"?>
<!DOCTYPE svg PUBLIC "-//W3C//DTD SVG 1.1//EN" "http://www.w3.org/Graphics/SVG/1.1/DTD/svg11.dtd">
<svg version="1.1" xmlns="http://www.w3.org/2000/svg" xmlns:xlink="http://www.w3.org/1999/xlink" preserveAspectRatio="xMidYMid meet" viewBox="0 0 459.39 126.33" width="459.39" height="126.33"><defs><path d="M39.33 51.66L70.66 52.66L15.66 126.33L31.66 73.66L0 72.66L53.33 0L39.33 51.66Z" id="d2nrNpqLk"></path><path d="M98.26 27L100.26 23.33L92.26 23.33L92.26 15.66L104.6 15.66L114.26 81.33L116.93 81.33L126.93 15.66L135.93 15.66L124.26 90L107.26 90L98.26 27Z" id="c32pFPWpWI"></path><path d="M146.6 15.66L155.26 15.66L154.6 90L146.6 90L146.6 15.66Z" id="asHAkixyw"></path><path d="M171.26 61.33L179.26 52.83L179.26 26.66L169.26 15.66L155.26 15.66L156.26 25L164.93 25L171.26 31L170.6 49.66L163.93 56.66L155.26 56.66L155.26 65L163.93 65L175.93 90L184.6 90L171.26 61.33Z" id="aHy98Em4B"></path><path d="M197.05 90L201.72 62L207.05 24.33L209.72 24.33L218.72 90L227.72 90L216.72 15.66L200.05 15.66L188.72 90L197.05 90Z" id="a8Dof7II7"></path><path d="M199.38 70.66L217.72 70.66L217.72 61.66L199.38 61.66L199.38 70.66Z" id="fqgzqfO0b"></path><path d="M268.38 24.33L247.05 24.33L247.05 48.66L264.38 48.66L264.38 57.66L247.05 57.66L247.05 81L268.38 81L268.38 90L238.05 90L238.05 15.66L268.38 15.66L268.38 24.33Z" id="bdY87chLY"></path><path d="M289.26 27L291.26 23.33L283.26 23.33L283.26 15.66L295.6 15.66L305.26 81.33L307.93 81.33L317.93 15.66L326.93 15.66L315.26 90L298.26 90L289.26 27Z" id="c32tLVk8PI"></path><path d="M337.6 15.66L346.26 15.66L345.6 90L337.6 90L337.6 15.66Z" id="d2GySUyfbV"></path><path d="M362.26 61.33L370.26 52.83L370.26 26.66L360.26 15.66L346.26 15.66L347.26 25L355.93 25L362.26 31L361.6 49.66L354.93 56.66L346.26 56.66L346.26 65L354.93 65L366.93 90L375.6 90L362.26 61.33Z" id="b3ztrRcRTK"></path><path d="M388.05 90L392.72 62L398.05 24.33L400.72 24.33L409.72 90L418.72 90L407.72 15.66L391.05 15.66L379.72 90L388.05 90Z" id="a35GVoYS9q"></path><path d="M390.38 70.66L408.72 70.66L408.72 61.66L390.38 61.66L390.38 70.66Z" id="f3gasYFTTl"></path><path d="M459.38 24.33L438.05 24.33L438.05 48.66L455.38 48.66L455.38 57.66L438.05 57.66L438.05 81L459.38 81L459.38 90L429.05 90L429.05 15.66L459.38 15.66L459.38 24.33Z" id="f2lNmYNFGn"></path></defs><g><g><g><use xlink:href="#d2nrNpqLk" opacity="1" fill="#ffffff" fill-opacity="1"></use><g><use xlink:href="#d2nrNpqLk" opacity="1" fill-opacity="0" stroke="#ffffff" stroke-width="1" stroke-opacity="1"></use></g></g><g><use xlink:href="#c32pFPWpWI" opacity="1" fill="#ffffff" fill-opacity="1"></use><g><use xlink:href="#c32pFPWpWI" opacity="1" fill-opacity="0" stroke="#ffffff" stroke-width="1" stroke-opacity="1"></use></g></g><g><use xlink:href="#asHAkixyw" opacity="1" fill="#ffffff" fill-opacity="1"></use><g><use xlink:href="#asHAkixyw" opacity="1" fill-opacity="0" stroke="#ffffff" stroke-width="1" stroke-opacity="1"></use></g></g><g><use xlink:href="#aHy98Em4B" opacity="1" fill="#ffffff" fill-opacity="1"></use><g><use xlink:href="#aHy98Em4B" opacity="1" fill-opacity="0" stroke="#ffffff" stroke-width="1" stroke-opacity="1"></use></g></g><g><use xlink:href="#a8Dof7II7" opacity="1" fill="#ffffff" fill-opacity="1"></use><g><use xlink:href="#a8Dof7II7" opacity="1" fill-opacity="0" stroke="#ffffff" stroke-width="1" stroke-opacity="1"></use></g></g><g><use xlink:href="#fqgzqfO0b" opacity="1" fill="#ffffff" fill-opacity="1"></use><g><use xlink:href="#fqgzqfO0b" opacity="1" fill-opacity="0" stroke="#ffffff" stroke-width="1" stroke-opacity="1"></use></g></g><g><use xlink:href="#bdY87chLY" opacity="1" fill="#ffffff" fill-opacity="1"></use><g><use xlink:href="#bdY87chLY" opacity="1" fill-opacity="0" stroke="#ffffff" stroke-width="1" stroke-opacity="1"></use></g></g><g><use xlink:href="#c32tLVk8PI" opacity="1" fill="#ffffff" fill-opacity="1"></use><g><use xlink:href="#c32tLVk8PI" opacity="1" fill-opacity="0" stroke="#ffffff" stroke-width="1" stroke-opacity="1"></use></g></g><g><use xlink:href="#d2GySUyfbV" opacity="1" fill="#ffffff" fill-opacity="1"></use><g><use xlink:href="#d2GySUyfbV" opacity="1" fill-opacity="0" stroke="#ffffff" stroke-width="1" stroke-opacity="1"></use></g></g><g><use xlink:href="#b3ztrRcRTK" opacity="1" fill="#ffffff" fill-opacity="1"></use><g><use xlink:href="#b3ztrRcRTK" opacity="1" fill-opacity="0" stroke="#ffffff" stroke-width="1" stroke-opacity="1"></use></g></g><g><use xlink:href="#a35GVoYS9q" opacity="1" fill="#ffffff" fill-opacity="1"></use><g><use xlink:href="#a35GVoYS9q" opacity="1" fill-opacity="0" stroke="#ffffff" stroke-width="1" stroke-opacity="1"></use></g></g><g><use xlink:href="#f3gasYFTTl" opacity="1" fill="#ffffff" fill-opacity="1"></use><g><use xlink:href="#f3gasYFTTl" opacity="1" fill-opacity="0" stroke="#ffffff" stroke-width="1" stroke-opacity="1"></use></g></g><g><use xlink:href="#f2lNmYNFGn" opacity="1" fill="#ffffff" fill-opacity="1"></use><g><use xlink:href="#f2lNmYNFGn" opacity="1" fill-opacity="0" stroke="#ffffff" stroke-width="1" stroke-opacity="1"></use></g></g></g></g></svg>